<svg width="18" height="18" viewBox="0 0 18 18" fill="none" xmlns="http://www.w3.org/2000/svg">
<path d="M8.98882 18C4.01475 17.99 -0.00902165 13.9712 1.51919e-05 8.99049C0.00952766 3.99884 4.00571 -0.00712616 9.00499 9.51806e-06C14.0252 0.0071452 18.0104 4.01311 18 9.01237C17.989 14.1287 13.8497 18.0048 8.98882 18ZM10.2026 8.9648C10.7234 8.43153 11.2357 7.90824 11.7465 7.38353C11.8045 7.32407 11.8578 7.26032 11.9087 7.19468C12.0894 6.963 12.1336 6.70993 12.009 6.43877C11.8644 6.12385 11.6242 5.92881 11.2713 5.90407C10.9993 5.88504 10.7824 6.01824 10.596 6.19901C10.0813 6.69803 9.57098 7.20086 9.05826 7.70226C9.0283 7.73128 8.99643 7.75839 8.94554 7.80406C8.91367 7.76125 8.89132 7.72272 8.86088 7.69179C8.35672 7.18802 7.85208 6.68424 7.34554 6.18331C6.93793 5.78038 6.38668 5.81368 6.05946 6.258C5.80785 6.60004 5.85113 7.01058 6.18026 7.3431C6.68442 7.85259 7.19096 8.35969 7.6975 8.8668C7.72794 8.89725 7.76742 8.9177 7.80785 8.94625C7.75743 9 7.72842 9.03187 7.69845 9.0628C7.20809 9.56372 6.71724 10.0637 6.22878 10.5665C6.16029 10.6369 6.09703 10.7145 6.04138 10.7958C5.84971 11.0751 5.85636 11.4285 6.05327 11.6959C6.28633 12.0117 6.62878 12.1559 6.94982 12.0374C7.09679 11.9832 7.23662 11.8828 7.35125 11.7739C7.86492 11.2853 8.36813 10.7863 8.87515 10.2911C8.90463 10.2621 8.93555 10.234 8.96742 10.2036C9.50582 10.7211 10.0328 11.2301 10.5622 11.7358C10.6392 11.8091 10.7225 11.8781 10.8114 11.9361C11.1967 12.1887 11.5248 12.0945 11.8197 11.8091C11.9729 11.6607 12.0799 11.4728 12.077 11.2406C12.0737 10.9742 11.9344 10.7754 11.765 10.5946C11.454 10.2621 11.1344 9.93763 10.819 9.60939C10.6164 9.39865 10.4143 9.18696 10.2026 8.96575V8.9648Z" fill="#DB2B45"/>
</svg>
