<svg width="21" height="18" viewBox="0 0 21 18" fill="none" xmlns="http://www.w3.org/2000/svg">
<path d="M15.3463 7.38895C15.006 7.42304 14.7752 7.61554 14.6083 7.9001C13.2917 10.1459 11.9747 12.3917 10.659 14.6381C10.4267 15.0345 10.1893 15.4285 9.9734 15.8339C9.8065 16.1476 9.89026 16.5497 10.1338 16.8082C10.3398 17.0267 10.5985 17.0962 10.8846 17.0965C11.6245 17.0971 12.3641 17.0971 13.1037 17.0971C13.8833 17.0971 14.6626 17.0971 15.4422 17.0971C16.2218 17.0971 16.9782 17.0971 17.7463 17.0971C18.5144 17.0971 19.2553 17.0971 20.0098 17.0962C20.2701 17.0962 20.5173 17.0438 20.7106 16.8522C21.0453 16.5202 21.0906 16.1076 20.8415 15.6817C19.33 13.0993 17.8183 10.5169 16.3056 7.93512C16.2587 7.85515 16.2051 7.77766 16.1446 7.70729C15.9591 7.49186 15.7282 7.38306 15.4552 7.38306C15.4196 7.38306 15.3833 7.38492 15.3463 7.38864V7.38895ZM16.1225 15.05C16.1148 15.4201 15.8151 15.7124 15.4481 15.7124C15.441 15.7124 15.4338 15.7124 15.427 15.7121C15.0479 15.7007 14.7612 15.4003 14.7693 15.024C14.778 14.6309 15.0643 14.3411 15.4416 14.3411C15.4453 14.3411 15.4493 14.3411 15.4531 14.3411C15.8402 14.347 16.1309 14.6548 16.1225 15.05ZM15.9671 10.3591C15.9718 10.8185 15.9687 11.2779 15.9687 11.7373C15.9687 12.1806 15.9715 12.6238 15.9674 13.0671C15.9653 13.2931 15.8883 13.4806 15.6643 13.5813C15.5979 13.6111 15.5284 13.625 15.4596 13.625C15.1859 13.625 14.9257 13.4065 14.9219 13.1151C14.9167 12.6592 14.9207 12.2029 14.9207 11.7466H14.9201C14.9201 11.2903 14.9185 10.8343 14.921 10.378C14.9219 10.2091 14.9651 10.0507 15.1016 9.9385C15.2067 9.85202 15.3197 9.808 15.4379 9.808C15.5157 9.808 15.5958 9.82691 15.6774 9.86535C15.8852 9.96299 15.9646 10.1437 15.9668 10.3591H15.9671Z" fill="#FFAD60"/>
<path d="M8.98345 16.5044C8.91551 16.1219 8.97538 15.7288 9.1519 15.3972C9.33618 15.0512 9.53349 14.7164 9.72397 14.3925C9.76803 14.3178 9.81177 14.2431 9.85551 14.1684C10.3931 13.2503 10.9361 12.324 11.4759 11.4031C11.461 11.3951 11.4461 11.387 11.4315 11.378C11.1306 11.1923 10.8368 10.9958 10.5421 10.8002C9.7097 10.2475 8.87828 9.6939 8.04747 9.13873C7.88305 9.02869 7.78284 8.87339 7.75988 8.67377C7.75399 8.62262 7.75027 8.57086 7.75027 8.5194C7.74965 7.76833 7.74996 7.01726 7.74996 6.26618H7.71738C7.71738 5.51759 7.71707 4.76931 7.71738 4.02071C7.71738 3.67509 7.90911 3.38247 8.21345 3.25786C8.62544 3.08955 9.27041 3.30219 9.34611 3.90385C9.35542 3.97763 9.36162 4.05264 9.36162 4.12704C9.36255 5.4277 9.36286 6.72867 9.361 8.02933C9.361 8.09039 9.37992 8.12511 9.4308 8.15921C10.3392 8.7649 11.2472 9.37091 12.1522 9.98156C12.19 10.007 12.2266 10.0339 12.2614 10.0628C12.4404 9.75745 12.6188 9.45305 12.7959 9.15113L13.8051 7.42983C14.2279 6.70821 14.8264 6.5061 15.2536 6.46333C15.3212 6.45651 15.3888 6.4531 15.4549 6.4531C16.0025 6.4531 16.4846 6.6769 16.8494 7.10064C16.9118 7.17317 16.971 7.25191 17.0266 7.3356C16.4384 3.23492 12.9619 0.00683031 8.56184 1.08333e-05C3.80037 -0.0074286 0.00714552 3.81768 1.01453e-05 8.54079C-0.00712523 13.2217 3.75043 17.0884 8.54633 17.0971C8.76132 17.0974 8.97445 17.0896 9.18541 17.0747C9.08768 16.8981 9.01912 16.7059 8.98345 16.5044Z" fill="#FFAD60"/>
</svg>
