<?xml version="1.0" encoding="utf-8"?>
<!-- Generator: Adobe Illustrator 26.5.0, SVG Export Plug-In . SVG Version: 6.00 Build 0)  -->
<svg version="1.1" id="Layer_1" xmlns="http://www.w3.org/2000/svg" xmlns:xlink="http://www.w3.org/1999/xlink" x="0px" y="0px"
	 viewBox="0 0 575.5 575.69" style="enable-background:new 0 0 575.5 575.69;" xml:space="preserve">
<style type="text/css">
	.st0{fill:#FFFFFF;}
</style>
<g>
	<path class="st0" d="M287.7,575.69C127.8,574.88-0.13,446.6,0,287.65C0.13,127.45,129.29-0.18,287.94,0
		c159.71,0.18,287.6,128.63,287.56,287.77C575.47,447.78,446.7,575.01,287.7,575.69z M282.91,521.63
		c119.82,3.02,234.85-89.68,238.67-228.95c3.28-119.74-89.56-234.89-228.84-238.73c-119.6-3.29-235,89.29-238.79,229.03
		C50.71,402.81,143.6,517.63,282.91,521.63z"/>
	<path class="st0" d="M260.73,377.83c0-24.14,0-47.95,0-72.13c-2.5,0-4.97,0.09-7.42-0.02c-6.25-0.26-12.18-1.65-17.41-5.33
		c-6.33-4.47-9.64-10.81-10.51-18.27c-1.77-15.31,8.07-27.77,22.99-29.71c2.71-0.35,5.47-0.5,8.21-0.51
		c9.83-0.06,19.67-0.11,29.5,0.01c6.18,0.08,12.06,1.55,17.24,5.08c6.37,4.35,9.62,10.68,10.79,18.12c0.42,2.7,0.56,5.47,0.56,8.2
		c0.04,30.41,0.02,60.83,0.02,91.24c0,0.99,0,1.98,0,3.32c5.3,0,10.44-0.21,15.55,0.07c3.62,0.2,7.32,0.66,10.79,1.68
		c10.63,3.14,16.49,10.75,18.03,21.41c2.16,14.98-7.56,28.22-22.96,30.17c-2.71,0.34-5.47,0.51-8.21,0.51
		c-27.75,0.04-55.5,0.07-83.24-0.01c-6.35-0.02-12.37-1.55-17.67-5.26c-6.35-4.44-9.68-10.77-10.58-18.23
		c-1.83-15.32,8.06-27.96,23.13-29.82c2.72-0.34,5.47-0.45,8.21-0.5C251.98,377.77,256.22,377.83,260.73,377.83z"/>
	<path class="st0" d="M323.68,179.67c0.1,20.81-14.92,35.91-35.82,36.02c-20.82,0.1-35.91-14.9-36.02-35.82
		c-0.11-20.8,14.91-35.91,35.82-36.02C308.47,143.74,323.58,158.76,323.68,179.67z"/>
</g>
</svg>
