<?xml version="1.0" encoding="utf-8"?>
<!-- Generator: Adobe Illustrator 26.5.0, SVG Export Plug-In . SVG Version: 6.00 Build 0)  -->
<svg version="1.1" id="Layer_1" xmlns="http://www.w3.org/2000/svg" xmlns:xlink="http://www.w3.org/1999/xlink" x="0px" y="0px"
	 viewBox="0 0 575.5 575.69" style="enable-background:new 0 0 575.5 575.69;" xml:space="preserve">
<style type="text/css">
	.st0{fill:#FFFFFF;}
</style>
<g>
</g>
<g>
	<path class="st0" d="M64.26,277.63c-6.26,5.22-12.09,10.04-17.86,14.93c-4.12,3.49-8.25,6.89-13.32,9
		c-10.32,4.28-19.76,2.38-26.53-5.9c-8.89-10.89-9.3-24.04,2.33-34.16c21.2-18.43,42.85-36.35,64.3-54.49
		c20.33-17.18,40.65-34.38,60.98-51.56c17.73-14.99,35.48-29.96,53.21-44.95c20.23-17.1,40.46-34.21,60.68-51.32
		c8.18-6.92,16.31-13.89,24.57-20.73c5.09-4.21,10.84-6.88,17.68-6.12c5.53,0.62,10.31,3.07,14.5,6.6
		c14.62,12.32,29.18,24.71,43.76,37.08c25.05,21.25,50.09,42.5,75.13,63.75c28.91,24.53,57.83,49.05,86.74,73.58
		c18.49,15.69,37,31.35,55.45,47.08c5.61,4.78,9.73,10.61,9.63,18.29c-0.16,11.89-7.23,22.38-19.76,24.72
		c-5.79,1.08-11.32-0.61-16.06-3.94c-5.77-4.04-11.22-8.53-16.78-12.87c-3.64-2.84-7.22-5.75-11.25-8.97c0,1.18,0,1.95,0,2.73
		c0,60.31,0.04,120.62-0.03,180.94c-0.02,16.7-3.99,32.4-13.04,46.6c-7.45,11.69-17.5,20.54-29.93,26.66
		c-12.79,6.29-26.4,8.9-40.59,8.9c-93.95-0.01-187.9,0.04-281.84-0.04c-16.55-0.01-32.13-3.99-46.26-12.9
		c-11.92-7.52-20.81-17.74-27.01-30.35c-6.18-12.57-8.69-25.92-8.69-39.84c0.01-59.93,0-119.85,0-179.78
		C64.26,279.76,64.26,278.96,64.26,277.63z M192.1,495.59c0-1.08,0-1.91,0-2.74c0-49.02,0-98.05,0-147.07
		c0-1.22,0.03-2.44,0.06-3.66c0.29-13.33,6.99-23.15,17.13-31.02c7.05-5.47,15.26-7.3,24.01-7.3c36.39,0,72.78,0,109.16,0.02
		c2.37,0,4.76,0.04,7.11,0.36c11.23,1.51,19.6,7.7,26.49,16.32c5.77,7.22,7.74,15.62,7.75,24.63c0.01,49.28,0,98.56,0,147.84
		c0,0.82,0,1.64,0,2.53c0.6,0.08,1.03,0.19,1.47,0.19c16.55-0.07,33.11,0.03,49.66-0.32c8.07-0.17,15.01-3.59,20.59-9.52
		c6.16-6.54,8.34-14.54,8.34-23.3c0-74.69,0-149.38,0.03-224.07c0-1.23-0.41-1.98-1.32-2.75c-5.6-4.7-11.16-9.46-16.72-14.21
		c-23.93-20.39-47.86-40.79-71.78-61.18c-24.86-21.18-49.71-42.36-74.57-63.54c-3.85-3.28-7.7-6.55-11.61-9.87
		c-0.95,0.8-1.78,1.5-2.61,2.2c-7.42,6.32-14.85,12.65-22.27,18.98c-24.8,21.14-49.61,42.29-74.41,63.43
		c-24.95,21.27-49.89,42.55-74.86,63.79c-1.21,1.03-1.78,2.04-1.78,3.71c0.05,74.37,0.04,148.74,0.05,223.1
		c0,1.92,0.06,3.86,0.26,5.76c1.04,9.55,5.52,17.08,13.47,22.49c5.9,4.01,12.59,5.26,19.56,5.28c14.89,0.05,29.78,0.02,44.67,0.01
		C190.6,495.7,191.23,495.64,192.1,495.59z M335.89,495.6c0-48.07,0-95.9,0-143.79c-32.04,0-63.95,0-95.88,0
		c0,48.01,0,95.87,0,143.79C272.03,495.6,303.89,495.6,335.89,495.6z"/>
</g>
</svg>
