<?xml version="1.0" encoding="utf-8"?>
<!-- Generator: Adobe Illustrator 26.5.0, SVG Export Plug-In . SVG Version: 6.00 Build 0)  -->
<svg version="1.1" id="Layer_1" xmlns="http://www.w3.org/2000/svg" xmlns:xlink="http://www.w3.org/1999/xlink" x="0px" y="0px"
	 viewBox="0 0 575.5 575.69" style="enable-background:new 0 0 575.5 575.69;" xml:space="preserve">
<style type="text/css">
	.st0{fill:#FFFFFF;}
</style>
<g>
	<path class="st0" d="M287.7,518.4c-48.33,0-96.67,0-145,0.01c-6.89,0-13.33-1.12-18.97-5.64c-6.29-5.06-9.03-11.48-8.72-19.4
		c1.41-36.17,16.22-65.72,43.81-89.04c22.28-18.84,48.25-28.51,77.1-29.35c32.06-0.94,64.17-0.82,96.25-0.62
		c23.88,0.15,46.62,5.64,67.45,17.64c15.74,9.07,28.75,21.29,39.31,36.07c14.32,20.05,21.5,42.49,21.65,67.06
		c0.07,11.97-9.55,21.82-21.66,22.98c-2.45,0.23-4.93,0.28-7.39,0.28C383.59,518.4,335.65,518.4,287.7,518.4z M414.83,475.3
		c-3.98-14.72-11.8-26.42-22.74-36.06c-15.96-14.06-35.05-20.95-55.94-21.49c-30.25-0.78-60.53-0.42-90.8-0.3
		c-6.59,0.03-13.25,0.65-19.74,1.78c-23.59,4.12-42.74,15.5-56.25,35.6c-4.19,6.23-7.42,12.94-9.46,20.47
		C244.98,475.3,329.65,475.3,414.83,475.3z"/>
	<path class="st0" d="M380.36,251.61c-0.09,52.58-40.51,93.74-92.48,93.4c-52.05-0.33-93.18-37.96-92.72-93.09
		c0.45-53.66,39.42-93.81,92.62-93.67C339.77,158.39,379.78,197.61,380.36,251.61z M237.32,251.72
		c1.17,30.03,21.11,50.04,50.57,50.23c29.03,0.2,50.23-22.3,50.21-50.33c-0.02-28.25-21.04-50.83-50.5-50.39
		C256.57,201.7,238.34,222.82,237.32,251.72z"/>
	<path class="st0" d="M461.06,200.84c-41.95-1.39-71.79-29.47-71.74-71.9c0.05-42.79,29.84-71.68,71.73-71.62
		c42.36,0.07,71.36,29.38,71.55,71.42C532.79,170.41,503.68,199.37,461.06,200.84z"/>
	<path class="st0" d="M114.58,200.84c-41.84-1.23-71.8-30.43-71.61-72.07c0.2-42.84,30.98-71.79,71.93-71.49
		c42.41,0.31,71.38,29.81,71.43,71.61C186.37,171.17,156.45,199.54,114.58,200.84z"/>
	<path class="st0" d="M382.31,330.82c5.74-9.57,11.81-18.63,16.77-28.25c6.67-12.93,10.08-26.98,10.8-41.5
		c0.35-7.06-0.33-14.18-0.79-21.25c-0.14-2.12,0.61-2.91,2.38-3.68c9.93-4.31,20.35-6.09,31.1-6.12c17.4-0.06,34.81-0.1,52.21,0
		c39.55,0.24,71.98,27.2,79.4,66.01c0.9,4.7,1.47,9.5,1.72,14.27c0.7,13.51-6.18,20.52-19.84,20.52c-39.48,0-78.97,0-118.45,0
		c-17.27,0-34.55,0-51.82,0C384.51,330.82,383.24,330.82,382.31,330.82z"/>
	<path class="st0" d="M166.05,237.03c-3.56,35.07,5.58,66.01,28.2,93.37c-1.24,0.18-2.04,0.41-2.84,0.41
		c-57.82,0.02-115.63,0.02-173.45,0.01c-10.47,0-19.16-6.53-18.35-20.55c1.17-20.37,7.9-38.61,21.54-53.89
		c13.82-15.49,31.2-24.86,52.03-25.62c22.95-0.84,45.96-0.43,68.93-0.16C150.61,230.69,158.62,233.59,166.05,237.03z"/>
</g>
</svg>
