<?xml version="1.0" encoding="utf-8"?>
<!-- Generator: Adobe Illustrator 26.5.0, SVG Export Plug-In . SVG Version: 6.00 Build 0)  -->
<svg version="1.1" id="Layer_1" xmlns="http://www.w3.org/2000/svg" xmlns:xlink="http://www.w3.org/1999/xlink" x="0px" y="0px"
	 viewBox="0 0 575.5 575.69" style="enable-background:new 0 0 575.5 575.69;" xml:space="preserve">
<style type="text/css">
	.st0{fill:#FFFFFF;}
</style>
<g>
	<path class="st0" d="M201.45,517.94c-55.72,0-111.43,0.02-167.15-0.02c-6.42,0-12.76-0.54-18.53-3.95
		c-10.92-6.44-16.04-16.18-15.76-28.58c0.4-17.24,3.45-34.08,9.09-50.4c8.03-23.29,21.32-43.18,38.98-60.25
		c13.97-13.49,29.77-24.19,47.77-31.56c19.22-7.88,39.28-11.98,60-12.11c32.15-0.2,64.33-0.79,96.43,0.37
		c43.65,1.58,80.61,18.68,110.16,51.32c22.12,24.44,34.94,52.97,38.89,85.59c0.56,4.67,0.85,9.37,1.32,14.05
		c1.98,19.58-11.3,35.77-33.7,35.63c-49.67-0.3-99.35-0.09-149.02-0.09C213.77,517.94,207.61,517.94,201.45,517.94z M358.74,474.75
		c-0.08-1.39-0.06-2.36-0.2-3.31c-2.8-18.31-9.06-35.31-20.1-50.25c-12.94-17.52-29.14-31.13-49.63-39.24
		c-14.12-5.58-28.83-7.94-43.91-8.01c-27.07-0.14-54.13-0.22-81.2,0.06c-9.62,0.1-19.33,0.71-28.82,2.18
		c-21.08,3.26-39.53,12.59-55.19,26.92c-14.33,13.11-24.57,29.15-30.46,47.7c-2.45,7.71-3.93,15.73-5.93,23.94
		C148.95,474.75,253.66,474.75,358.74,474.75z"/>
	<path class="st0" d="M86.5,172.67c0.68-64.97,48.73-114.96,114.82-115.01c66.07-0.05,114.89,49.77,114.93,114.8
		c0.03,64.67-48.54,114.8-114.89,114.81C135.7,287.27,87.4,237.73,86.5,172.67z M273.18,169.19c-2.74-44.57-37.04-70.67-75.7-68.42
		c-43.58,2.54-69.07,35.66-67.85,73.73c1.44,44.94,36.48,72.65,77.66,69.53C248.99,240.87,274.44,207.71,273.18,169.19z"/>
	<path class="st0" d="M459.8,263.47c13.47-14.43,26.82-28.73,40.19-43.02c12.21-13.06,24.42-26.13,36.66-39.17
		c8.4-8.95,19.33-10.94,28.76-5.32s13.04,18.68,7.45,28.19c-2.05,3.49-4.8,6.64-7.57,9.63c-29.41,31.72-59.05,63.22-88.21,95.16
		c-7.14,7.82-22.15,10.27-30.83,1.67c-0.77-0.76-1.63-1.44-2.39-2.21c-15.8-15.81-31.62-31.6-47.38-47.46
		c-8.58-8.63-9.74-19.24-3.63-28.61c4.93-7.56,17.87-12.77,28.54-5.78c2.3,1.51,4.52,3.25,6.48,5.18
		c9.81,9.67,19.51,19.45,29.26,29.18C457.95,261.76,458.83,262.55,459.8,263.47z"/>
</g>
</svg>
