<?xml version="1.0" encoding="utf-8"?>
<!-- Generator: Adobe Illustrator 26.5.0, SVG Export Plug-In . SVG Version: 6.00 Build 0)  -->
<svg version="1.1" id="Layer_1" xmlns="http://www.w3.org/2000/svg" xmlns:xlink="http://www.w3.org/1999/xlink" x="0px" y="0px"
	 viewBox="0 0 575.5 575.69" style="enable-background:new 0 0 575.5 575.69;" xml:space="preserve">
<style type="text/css">
	.st0{fill:#FFFFFF;}
</style>
<g>
	<path class="st0" d="M333.06,368.53c-3.39,0-5.76,0-8.14,0c-41.17,0-82.33-0.27-123.49,0.12c-19.81,0.19-34.24-8.12-43.57-25.12
		c-2.5-4.55-4.08-10.2-4.16-15.37c-0.42-26.55-0.76-53.13-0.06-79.67c0.57-21.74,18.83-40.3,40.44-40.65
		c43.55-0.71,87.12-0.4,130.68-0.5c2.54-0.01,5.08,0,8.32,0c0-2.86,0-5,0-7.14c0-17.58-0.18-35.16,0.05-52.74
		c0.31-23.02,14.33-38.23,35.97-39.01c11.06-0.4,20.78,3.76,28.97,11.02c55.64,49.26,111.24,98.57,166.76,147.97
		c14.36,12.78,14.22,29.66-0.22,42.4c-55.43,48.89-110.91,97.73-166.42,146.53c-17.18,15.1-38.9,14.92-55.06-0.41
		c-6.24-5.91-9.37-13.6-9.58-21.97c-0.48-19.16-0.36-38.34-0.48-57.51C333.05,374.09,333.06,371.73,333.06,368.53z M386.43,394.25
		c41.36-36.03,81.43-70.93,122.06-106.33c-40.67-35.73-80.74-70.93-122.19-107.35c0,27.29,0,52.71,0,79.03
		c-60.35,0-119.92,0-179.35,0c0,18.6,0,36.28,0,54.65c59.92,0,119.35,0,179.48,0C386.43,340.79,386.43,366.62,386.43,394.25z"/>
	<path class="st0" d="M0.06,287.62c0-46.54-0.12-93.09,0.06-139.63c0.07-18.33,2.96-36.2,11.64-52.68
		C27.78,64.85,52.44,45.55,86.36,38.9c8.95-1.75,18.23-2.35,27.37-2.49c23.18-0.34,46.36-0.15,69.54-0.07
		c3.36,0.01,6.73,0.59,10.08,1c21.12,2.59,28.15,28.11,15.46,43.43c-6.16,7.43-14.92,8.99-23.81,9.08
		c-24.78,0.23-49.56-0.04-74.34,0.13c-13.08,0.09-25.36,3.41-35.84,11.52c-14.26,11.04-20.93,26.27-20.98,43.81
		c-0.27,95.08-0.3,190.17-0.03,285.25c0.09,32.01,24.01,55.1,56.25,55.31c24.18,0.16,48.36-0.02,72.54,0.08
		c3.76,0.02,7.55,0.47,11.26,1.11c9.86,1.71,16.54,7.08,19.76,16.87c3.39,10.3,1.14,19.37-5.55,27.29
		c-5.24,6.21-13.03,8.13-20.6,8.15c-29.96,0.05-59.97,0.49-89.86-1.09c-32.91-1.73-58.59-17.96-77.89-44.42
		c-14.21-19.49-19.48-41.79-19.6-65.42C-0.11,381.51,0.06,334.57,0.06,287.62z"/>
</g>
</svg>
