<?xml version="1.0" encoding="utf-8"?>
<!-- Generator: Adobe Illustrator 26.5.0, SVG Export Plug-In . SVG Version: 6.00 Build 0)  -->
<svg version="1.1" id="Layer_1" xmlns="http://www.w3.org/2000/svg" xmlns:xlink="http://www.w3.org/1999/xlink" x="0px" y="0px"
	 viewBox="0 0 575.5 575.69" style="enable-background:new 0 0 575.5 575.69;" xml:space="preserve">
<style type="text/css">
	.st0{fill:#FFFFFF;}
	.st1{fill:#F5F6FA;}
	.st2{fill:#9EA9B4;}
</style>
<g>
	<path class="st1" d="M119.18,0.1h337.13c65.82,0,119.18,53.36,119.18,119.18v337.13c0,65.82-53.36,119.18-119.18,119.18H119.18
		C53.36,575.59,0,522.23,0,456.41V119.28C0,53.46,53.36,0.1,119.18,0.1z"/>
	<g>
		<path class="st2" d="M98.66,438.88c-0.21-4.92,0.87-9.57,3.15-13.92c23.36-44.74,46.73-89.49,70.15-134.19
			c0.95-1.81,1.01-3.13,0.04-4.99c-23.47-44.78-46.79-89.64-70.31-134.4c-6.49-12.36-1.71-28.13,8.87-34.57
			c6.04-3.68,12.34-4.84,19.02-2.02c17.69,7.49,35.38,14.99,53.05,22.55c98.78,42.31,197.54,84.69,296.37,126.91
			c9.89,4.23,15.97,10.89,17.66,21.61c1.33,8.46-3.39,19.17-11.23,23.03c-8.72,4.3-17.71,8.05-26.65,11.89
			C350.89,367.03,243,413.25,135.12,459.48c-5.52,2.36-11.08,3.84-17.21,2.46C107.68,459.62,98.96,449.65,98.66,438.88z
			 M395.89,307.36c-0.03-0.15-0.05-0.31-0.08-0.46c-0.33-0.02-0.66-0.06-0.99-0.06c-62.35,0-124.69,0-187.04-0.04
			c-1.62,0-2.32,0.68-2.99,1.97c-17.63,33.82-35.3,67.62-52.96,101.43c-0.37,0.7-0.66,1.44-1.26,2.74
			C232.71,377.59,314.3,342.47,395.89,307.36z M150.57,163.52c0.43,1.06,0.54,1.37,0.69,1.66c17.89,34.25,35.8,68.48,53.65,102.75
			c0.78,1.5,1.8,1.63,3.21,1.63c61.68-0.02,123.36-0.02,185.04-0.02c0.76,0,1.52-0.09,2.28-0.14c0.01-0.16,0.02-0.32,0.03-0.48
			C314.04,233.87,232.61,198.82,150.57,163.52z"/>
	</g>
</g>
</svg>
