<svg width="18" height="18" viewBox="0 0 18 18" fill="none" xmlns="http://www.w3.org/2000/svg">
<path d="M16.2101 6.01553C16.5937 6.23983 16.9261 6.50631 17.207 6.83887C17.8214 7.56615 18.0756 8.40559 17.9807 9.34606C17.8675 10.4681 17.2836 11.2997 16.3472 11.8971C16.239 11.9665 16.2135 12.0226 16.244 12.1481C16.5393 13.3717 16.2107 14.4399 15.3682 15.3409C14.8914 15.8511 14.2675 16.1415 13.5782 16.2747C13.0909 16.3686 12.6041 16.3608 12.1235 16.2336C12.0186 16.2059 11.9675 16.2325 11.9137 16.3219C11.5967 16.8521 11.1688 17.2713 10.6327 17.5783C9.95108 17.9686 9.21733 18.0724 8.45084 17.9536C7.42848 17.7948 6.66975 17.2324 6.12305 16.3719C6.03869 16.2392 5.96875 16.2153 5.81889 16.2459C4.78765 16.4579 3.8219 16.3075 2.97271 15.6563C2.38382 15.2043 2.00862 14.5942 1.78606 13.8913C1.60456 13.3184 1.5979 12.7371 1.75942 12.1581C1.79605 12.0276 1.76497 11.9649 1.65174 11.8949C0.991812 11.4874 0.502831 10.9278 0.216992 10.2038C-0.0111248 9.62698 -0.0472017 9.02572 0.0521484 8.41891C0.217547 7.40737 0.788671 6.66509 1.63231 6.11824C1.75498 6.03829 1.78828 5.97667 1.75054 5.82677C1.46414 4.70253 1.70558 3.69876 2.46874 2.82379C2.91943 2.30748 3.4578 1.92218 4.13105 1.75452C4.68608 1.61628 5.24721 1.60739 5.80224 1.75452C5.9632 1.79726 6.04091 1.75785 6.12915 1.61739C6.52711 0.981703 7.06882 0.507023 7.76982 0.226657C8.35981 -0.0104057 8.97312 -0.0492684 9.59364 0.0534401C10.5999 0.219995 11.337 0.790721 11.882 1.62904C11.9608 1.75007 12.0197 1.78949 12.1734 1.74952C13.1192 1.50302 14.0028 1.6618 14.8176 2.19977C15.5208 2.66446 15.9842 3.30791 16.2118 4.11681C16.375 4.69642 16.3805 5.28269 16.2418 5.86952C16.2312 5.91393 16.2223 5.9589 16.2096 6.01498L16.2101 6.01553ZM7.89692 10.0684C7.83143 10.0062 7.79424 9.97175 7.75872 9.93678C7.34189 9.53038 6.92784 9.12122 6.50824 8.7176C6.07032 8.29622 5.47533 8.35784 5.18616 8.84918C4.98136 9.19672 5.03075 9.57147 5.33935 9.88348C5.96931 10.5208 6.60315 11.1543 7.24088 11.7839C7.41016 11.951 7.6072 12.0776 7.86306 12.077C8.13114 12.077 8.3254 11.9338 8.50079 11.7583C9.77569 10.4859 11.0495 9.21116 12.3233 7.93757C12.3494 7.91148 12.3754 7.88538 12.3999 7.85707C12.6008 7.62334 12.7179 7.36351 12.5969 7.05539C12.4715 6.73727 12.2384 6.52907 11.8959 6.47522C11.5895 6.42692 11.3481 6.5796 11.1427 6.78335C10.0915 7.82931 9.04416 8.8786 7.99683 9.92845C7.95797 9.96731 7.93189 10.0184 7.89692 10.0684V10.0684Z" fill="#29D244"/>
</svg>
