<svg width="18" height="18" viewBox="0 0 18 18" fill="none" xmlns="http://www.w3.org/2000/svg">
<path d="M10.1222 2.35979C10.1222 2.68008 10.1247 2.99224 10.1216 3.30378C10.1185 3.59655 10.0658 3.87868 9.86412 4.10452C9.53398 4.47423 9.11426 4.55806 8.65383 4.43107C8.22659 4.31346 7.97789 4.01756 7.90585 3.58091C7.8858 3.4583 7.87954 3.33193 7.87954 3.20744C7.87703 2.52994 7.87703 1.85244 7.87954 1.17432C7.88142 0.700133 8.05181 0.312902 8.5016 0.108964C8.66197 0.0363974 8.85366 -0.00238835 9.03032 0.000113951C9.95683 0.013251 10.8677 0.143996 11.7516 0.429885C13.2356 0.909076 14.5174 1.71607 15.5773 2.85712C16.7688 4.13955 17.5349 5.64343 17.8488 7.37253C18.157 9.07159 17.9935 10.7275 17.3633 12.329C16.8152 13.7202 15.9563 14.8995 14.8105 15.8672C13.7036 16.8025 12.4463 17.4387 11.0343 17.7621C10.1304 17.9692 9.21199 18.0505 8.2861 17.9685C6.32784 17.794 4.59196 17.084 3.10352 15.7896C1.65393 14.5285 0.701731 12.962 0.25069 11.1003C-0.0092847 10.0293 -0.0650383 8.94084 0.0740325 7.84171C0.268857 6.29654 0.856462 4.90963 1.75792 3.65535C2.03919 3.26437 2.37559 2.90779 2.71888 2.56748C3.148 2.14146 3.78196 2.14646 4.21671 2.53995C4.65084 2.93281 4.72476 3.58717 4.36581 4.05385C4.15031 4.3341 3.89222 4.58058 3.6692 4.85521C3.01645 5.6597 2.59986 6.57867 2.39877 7.59148C2.01915 9.50324 2.34615 11.288 3.46435 12.8901C4.37019 14.1888 5.5974 15.0802 7.13845 15.4919C8.97832 15.9836 10.7606 15.8047 12.4081 14.8413C14.1152 13.8435 15.1996 12.3571 15.6042 10.4009C15.9118 8.91394 15.7646 7.47199 15.1212 6.09948C14.5061 4.78765 13.5432 3.78485 12.2697 3.08483C11.6382 2.73763 10.9635 2.51618 10.2607 2.3723C10.2212 2.36417 10.1798 2.36479 10.1222 2.35979ZM9.6812 8.57363C9.63922 8.49231 9.57094 8.42162 9.50516 8.35593C8.60308 7.45135 7.69536 6.55302 6.79767 5.64406C6.25705 5.09668 5.5667 5.40321 5.39381 5.93808C5.27854 6.29403 5.42137 6.56741 5.66255 6.80888C6.55398 7.7022 7.44667 8.59365 8.33935 9.48509C8.39448 9.54014 8.45524 9.58957 8.51726 9.63711C8.76659 9.82666 9.03596 9.88296 9.31911 9.72594C9.60915 9.56579 9.79772 9.32933 9.82277 8.92208C9.7902 8.8395 9.74635 8.70125 9.6812 8.57363Z" fill="#C4C6D0"/>
</svg>
