<?xml version="1.0" encoding="utf-8"?>
<!-- Generator: Adobe Illustrator 26.5.0, SVG Export Plug-In . SVG Version: 6.00 Build 0)  -->
<svg version="1.1" id="Layer_1" xmlns="http://www.w3.org/2000/svg" xmlns:xlink="http://www.w3.org/1999/xlink" x="0px" y="0px"
	 viewBox="0 0 72.61 79.8" style="enable-background:new 0 0 72.61 79.8;" xml:space="preserve">
<style type="text/css">
	.st0{fill:#FFFFFF;}
</style>
<g>
	<path class="st0" d="M33.12,20.8c0.99-0.39,2.08-0.57,3.07-0.76l0.36-0.08c1.09-0.18,1.56-0.65,1.43-1.38
		c-0.05-0.34-0.18-0.6-0.42-0.76c-0.31-0.21-0.75-0.26-1.35-0.18c-5.98,1.05-10.64,4-13.81,8.83c-2.6,4.23-3.77,8.54-3.51,13.17
		c0,0.29,0.03,0.65,0.13,0.97c0,0.08,0.05,0.13,0.05,0.18c0.23,0.57,0.7,0.81,1.33,0.68h0.03c0.68-0.18,0.96-0.63,0.91-1.41
		c-0.18-2.48,0.03-4.76,0.68-6.95c1.74-5.98,5.49-10.14,11.13-12.31H33.12z M51.12,42.87h0.05c0.39-0.1,0.6-0.31,0.7-0.47
		c0.18-0.29,0.23-0.68,0.13-1.15c-0.7-3.32-1.77-6.06-3.25-8.44c-1.3-2.06-2.84-3.66-4.66-4.86c-2.52-1.62-5.67-2.06-8.61-1.15
		c-2.99,0.91-5.41,3.06-6.63,5.88c-1.82,4.21-1.56,8.2,0.83,12.15c0.29,0.47,0.65,0.91,1.35,0.81c0.42-0.05,0.73-0.29,0.86-0.63
		c0.18-0.42,0.13-0.94-0.16-1.41c-0.99-1.54-1.53-3.24-1.66-5.02c-0.34-5.12,3.12-9.35,8.01-9.85c3.38-0.34,5.67,1.7,7.1,3.29
		c1.9,2.09,3.23,4.83,4.24,8.65c0.05,0.18,0.08,0.37,0.13,0.55c0,0.08,0.03,0.16,0.05,0.24c0,0.1,0.05,0.18,0.08,0.37
		C49.9,42.61,50.44,43,51.12,42.87z M44.59,50.24c0.34-0.08,0.7-0.37,0.99-1.1c1.43-3.97,1.48-8.02,0.13-12.04
		c-0.91-2.69-2.76-4.68-5.51-5.93c-1.43-0.65-3.15-0.57-4.71,0.16c-1.59,0.78-2.78,2.19-3.2,3.79c-0.6,2.35-0.18,4.52,1.3,6.56
		c1.12,1.54,1.25,3.19,0.36,4.76c-0.6,1.07-1.56,1.7-2.63,1.78c-1.04,0.08-2.03-0.44-2.76-1.38c-1.17-1.54-1.98-3.19-2.44-4.86
		c-0.78-2.82-0.57-5.85,0.65-9.01c0.23-0.57,0.52-1.15,0.78-1.65c0.13-0.26,0.26-0.5,0.39-0.78c2.44-3.66,5.96-5.8,9.91-6.01
		c4.03-0.24,7.99,1.62,10.9,5.04c0.08,0.1,0.16,0.18,0.21,0.29c0.08,0.1,0.16,0.21,0.23,0.31c0.49,0.57,1.22,0.71,1.72,0.31
		c0.57-0.44,0.62-1.15,0.16-1.8c-1.27-1.78-2.84-3.21-4.6-4.26c-6.55-3.84-13.37-2.93-18.73,2.53c-5.49,5.59-5.98,15.18-1.12,21.35
		c1.64,2.06,4.4,2.85,6.68,1.88c2.44-1.02,3.98-3.84,3.59-6.51c-0.13-0.81-0.44-1.57-0.78-2.33c-0.13-0.29-0.23-0.55-0.34-0.84
		c-0.13-0.34-0.31-0.71-0.47-1.04l-0.05-0.13c-0.29-0.6-0.55-1.18-0.7-1.83c-0.34-1.57,0.23-2.9,1.64-3.79
		c1.3-0.84,2.6-0.78,3.9,0.1c1.77,1.23,2.97,2.82,3.51,4.73v0.13c0.94,3.24,0.83,6.48-0.29,9.64c-0.34,0.99-0.16,1.62,0.62,1.91
		c0.16,0.05,0.39,0.1,0.65,0.05V50.24z M38.48,51.6h0.03c0.36-0.1,0.7-0.39,0.99-0.84c0,0,0.83-1.44,0.99-1.83
		c0.47-1.2,0.94-2.46,1.25-3.74c0.7-3.03-0.08-5.9-2.29-8.52c-0.36-0.44-0.78-0.68-1.14-0.71c-0.29,0-0.57,0.08-0.81,0.29
		c-0.29,0.24-0.44,0.52-0.47,0.84c0,0.37,0.16,0.76,0.52,1.18c2.21,2.56,2.55,5.49,1.04,8.99c-0.29,0.71-0.68,1.36-1.07,2.04
		l-0.1,0.16C36.92,50.32,37,51,37.62,51.39c0.29,0.18,0.57,0.26,0.86,0.18V51.6z M27.79,18.5c0.62-0.52,0.81-1.36,0.42-1.91
		c-0.42-0.6-1.09-0.68-1.85-0.18c-2.16,1.38-4.08,3.11-5.75,5.12c-1.56,1.8-2.52,3.5-3.12,4.7c-0.6,1.2-1.4,3.37-1.79,4.44
		c-0.13,0.31-0.13,0.57-0.08,0.84c0.08,0.29,0.26,0.52,0.57,0.71c0.34,0.21,0.65,0.29,0.94,0.21h0.05c0.36-0.13,0.7-0.47,0.91-0.99
		l0.47-1.12c0.65-1.57,1.35-3.19,2.21-4.68c1.48-2.56,3.59-4.78,6.5-6.79l0.16-0.1c0,0,0.26-0.16,0.36-0.26"/>
	<path class="st0" d="M58.43,57.69l0.29-0.29c5.05-5.15,8.19-11.73,9.16-19.07v-0.18C70.39,19.13,57.8,2.85,38.58,0.31
		C19.59-2.19,2.79,10.58,0.32,29.39v0.18C-2.2,48.6,10.41,64.85,29.61,67.41c7.36,0.97,14.25-0.21,20.47-3.53l0.29-0.16l14.41,16.02
		c0,0,0.26,0.13,0.39,0l7.39-6.35c0,0,0.13-0.29,0-0.39L58.4,57.66L58.43,57.69z M57.88,37.2c-0.65,4.96-2.5,9.38-5.36,12.72
		c0,0-1.27,1.72-4.11,4c-2.81,2.25-4.99,3.21-4.99,3.21c-3.82,1.78-8.14,2.43-12.51,1.83c-13.4-1.78-22.45-14.19-20.63-28.24v-0.21
		c1.9-14.19,13.5-23.57,27-21.76c13.4,1.78,22.45,14.19,20.6,28.27V37.2z"/>
</g>
</svg>
